<svg width="1430" height="819" viewBox="0 0 1430 819" fill="none" xmlns="http://www.w3.org/2000/svg">
<rect x="921.488" y="-682.55" width="1215.25" height="1262.12" rx="100" transform="rotate(66.8353 921.488 -682.55)" fill="#D24B61"/>
<rect x="783.465" y="-692.416" width="1215.25" height="1215.28" rx="100" transform="rotate(60 783.465 -692.416)" fill="#FBF4E4"/>
<rect opacity="0.111111" width="1097.94" height="967.79" rx="100" transform="matrix(0.554238 0.832358 -0.894212 0.447644 821.48 -528)" stroke="#D24B61" stroke-width="1.44444"/>
<rect opacity="0.222222" width="1118.75" height="990.129" rx="100" transform="matrix(0.554238 0.832358 -0.894212 0.447644 809.949 -538)" stroke="#D24B61" stroke-width="1.88889"/>
<rect opacity="0.333333" width="1139.56" height="1012.47" rx="100" transform="matrix(0.554238 0.832358 -0.894212 0.447644 798.414 -548)" stroke="#CE69CE" stroke-width="2.33333"/>
<rect opacity="0.444444" width="1160.36" height="1034.81" rx="100" transform="matrix(0.554238 0.832358 -0.894212 0.447644 786.883 -558)" stroke="#D24B61" stroke-width="2.77778"/>
<rect opacity="0.555556" width="1181.17" height="1057.15" rx="100" transform="matrix(0.554238 0.832358 -0.894212 0.447644 775.348 -568)" stroke="#D65368" stroke-width="3.22222"/>
<rect opacity="0.666667" width="1201.98" height="1079.49" rx="100" transform="matrix(0.554238 0.832358 -0.894212 0.447644 763.816 -578)" stroke="#D24B61" stroke-width="3.66667"/>
<rect opacity="0.777778" width="1222.79" height="1101.82" rx="100" transform="matrix(0.554238 0.832358 -0.894212 0.447644 752.281 -588)" stroke="#D24B61" stroke-width="4.11111"/>
<rect opacity="0.888889" width="1243.6" height="1124.16" rx="100" transform="matrix(0.554238 0.832358 -0.894212 0.447644 740.75 -598)" stroke="#D24B61" stroke-width="4.55556"/>
<rect width="1264.41" height="1146.5" rx="100" transform="matrix(0.554238 0.832358 -0.894212 0.447644 729.215 -608)" stroke="#D24B61" stroke-width="5"/>
</svg>
